<svg width="188" height="331" viewBox="0 0 188 331" fill="none" xmlns="http://www.w3.org/2000/svg">
<path d="M87.8049 -44C87.7049 -40.5 87.6049 -37.1 87.7049 -33.6C87.7049 -33.1 88.1049 -32.6 88.5049 -32.2C89.9049 -30.9 89.9049 -29.7 88.6049 -28.3C88.1049 -27.8 87.7049 -27 87.7049 -26.3C87.6049 -16.6 87.6049 -6.9 87.7049 2.8C87.7049 3.4 88.0049 4.1 88.2049 4.7C88.2049 4.9 88.5049 5 88.5049 5.1C88.3049 6.9 88.1049 8.6 88.0049 10.4C87.9049 12.9 87.8049 15.4 87.8049 17.9C87.8049 20.3 87.8049 22.7 87.8049 25.1C87.8049 27.1 87.8049 27.1 89.2049 28.3C86.8049 29.5 88.0049 31.6 87.8049 33.5C89.0049 33.6 90.5049 32.4 90.8049 34.2C90.9049 34.7 89.6049 35.4 88.8049 35.8C87.0049 40.5 88.0049 45.6 87.8049 50.6C87.6049 55.7 87.8049 60.7 87.8049 65.8C87.8049 68.9 87.8049 72 87.8049 75C87.8049 79.7 87.8049 84.4 87.8049 89.1C87.8049 90.2 87.2049 91.6 88.9049 92.2C88.5049 93.1 87.9049 94.1 87.9049 95C87.8049 100.6 87.8049 106.2 87.9049 111.7C87.9049 112.3 88.3049 113.1 88.7049 113.6C89.8049 114.8 89.7049 116 88.5049 116.9C88.2049 117.1 87.9049 117.5 87.9049 117.8C88.0049 119.5 88.2049 121.2 88.3049 122.8C88.3049 123.1 88.4049 123.5 88.4049 123.8C88.3049 128.5 88.1049 133.2 88.0049 137.9C87.9049 142.4 87.9049 146.9 87.9049 151.4C87.9049 160.9 87.8049 170.3 87.8049 179.8C87.8049 180.2 87.9049 180.9 88.1049 181C90.4049 182.6 90.6049 185.1 90.9049 187.4C91.4049 191.4 91.3049 195.4 89.3049 199.1C88.9049 199.9 88.7049 200.9 88.4049 202C88.6049 202.2 88.9049 202.4 89.2049 202.7C90.5049 203.9 90.8049 205.6 89.5049 206.9C88.7049 207.8 88.8049 208.4 89.5049 209.2C91.6049 211.7 94.2049 213.6 97.2049 215.1C100.305 216.6 103.605 218 106.505 219.8C112.805 223.8 116.105 229.6 116.105 237.2C116.105 257.7 116.105 278.1 116.105 298.6C116.105 306.7 112.005 312.4 105.205 316.3C102.705 317.8 99.9049 319 97.3049 320.3C92.7049 322.6 88.9049 325.5 87.3049 330.6C87.3049 330.7 87.1049 330.8 87.0049 330.9C86.1049 326.1 82.7049 323.4 78.8049 321.2C75.8049 319.5 72.6049 318.3 69.6049 316.7C62.3049 312.7 58.2049 306.7 58.2049 298.2C58.1049 284.7 58.2049 271.3 58.1049 257.8C58.1049 251.6 58.1049 245.5 58.0049 239.3C57.9049 233.2 59.3049 227.7 63.6049 223.1C67.0049 219.6 71.2049 217.5 75.5049 215.6C79.1049 214.1 82.3049 212.1 84.8049 209.1C85.2049 208.6 85.5049 207.8 85.3049 207.4C83.9049 204.1 83.9049 204.2 86.2049 201.8C83.5049 196.4 82.4049 190.7 84.2049 184.7C84.5049 183.5 85.5049 182.5 86.1049 181.3C86.3049 180.9 86.7049 180.4 86.7049 180C86.7049 166.7 86.7049 153.3 86.7049 139.9C86.4049 139.8 86.1049 139.8 85.8049 139.6C85.5049 139.4 85.2049 139.1 85.1049 138.8C85.1049 138.6 85.5049 138.4 85.7049 138.1C86.0049 137.7 86.6049 137.3 86.6049 136.8C86.7049 133.4 86.6049 130 86.6049 126.5C86.6049 125.5 86.3049 125 85.2049 125.3C84.0049 125.6 82.7049 125.7 82.1049 124.3C81.8049 123.6 81.9049 122.5 82.3049 122C83.1049 120.8 84.3049 120.9 85.5049 121.5C85.7049 121.6 86.0049 121.6 86.4049 121.6C86.4049 109.8 86.4049 98.1 86.4049 86.4C86.2049 86.3 86.1049 86.2 85.9049 86.1C85.4049 86.7 85.0049 87.4 84.5049 87.9C84.2049 88.2 83.7049 88.3 83.4049 88.5C83.3049 88.1 83.0049 87.5 83.1049 87.4C84.0049 86.6 83.4049 85.8 83.2049 85.1C82.8049 84 83.1049 82.9 84.1049 82.5C85.1049 82 85.1049 81.2 85.6049 80.5C87.5049 77.4 86.2049 74.1 86.6049 70.9C86.6049 70.8 86.6049 70.7 86.6049 70.6C86.3049 69.5 85.3049 67.9 85.7049 67.4C86.5049 66.3 86.6049 65.3 86.6049 64.1C86.6049 63 86.4049 61.9 86.3049 60.3C85.0049 60.3 83.5049 60.4 82.0049 60.3C81.5049 60.3 80.9049 59.8 80.7049 59.3C80.6049 59 81.1049 58.3 81.4049 58C81.7049 57.8 82.3049 57.9 82.7049 57.9C83.0049 55.9 83.0049 55.9 84.8049 57C85.2049 57.2 85.7049 57.3 86.4049 57.5C86.5049 56.8 86.5049 56.2 86.5049 55.7C86.5049 50.8 86.5049 45.8 86.5049 40.9C86.5049 39.8 86.6049 38.8 86.5049 37.7C86.4049 37.1 85.9049 36.5 85.5049 36C85.1049 35.4 84.3049 34.9 84.3049 34.4C84.3049 33.9 85.2049 33.4 85.7049 32.9C86.0049 32.6 86.5049 32.2 86.5049 31.9C86.5049 25.3 86.5049 18.7 86.5049 12.1C86.5049 11.9 86.3049 11.7 86.4049 11.9C85.9049 12.6 85.3049 13.4 84.6049 14C84.5049 14.1 83.3049 13.4 83.4049 13.2C83.5049 12.4 83.9049 11.7 84.4049 10.5C83.4049 9 84.2049 7.6 86.1049 6.4C86.4049 6.2 86.5049 5.5 86.5049 5C86.5049 -1.7 86.5049 -8.3 86.5049 -15C86.5049 -18.8 86.5049 -22.6 86.5049 -26.3C86.5049 -27.5 86.0049 -28.1 84.9049 -28.6C84.1049 -28.9 83.6049 -29.8 83.0049 -30.5C83.7049 -31 84.2049 -31.7 85.0049 -31.9C86.0049 -32.2 86.5049 -32.7 86.5049 -33.8C86.4049 -37.3 86.4049 -40.6 86.4049 -44C86.9049 -44 87.3049 -44 87.8049 -44ZM82.9049 242.8C83.2049 241.4 82.4049 240.9 81.2049 241C80.3049 241.1 79.1049 240.5 79.0049 242.1C78.9049 243.5 79.6049 244.2 80.7049 244.5C80.8049 243.6 80.8049 242.9 80.8049 242.1C81.5049 242.3 82.2049 242.6 82.9049 242.8C83.6049 244.3 82.3049 244.7 81.4049 245C80.1049 245.4 78.4049 244.2 78.4049 242.8C78.4049 240.7 77.2049 240.9 75.9049 241.2C75.6049 244.6 76.2049 245.8 80.4049 247.3C82.8049 248.1 86.4049 244.7 85.7049 242.3C85.6049 241.8 85.0049 241.3 84.5049 241.2C84.1049 241.2 83.7049 241.8 83.3049 242.2C83.1049 242.3 83.0049 242.6 82.9049 242.8ZM66.3049 270.7C66.3049 270.2 66.2049 269.7 66.2049 269.3C65.4049 269.4 64.7049 269.4 64.1049 269.5C64.1049 268.8 64.1049 268.1 64.1049 266.8C63.4049 267.6 62.6049 268 62.4049 268.7C62.2049 269.3 62.4049 270.4 62.9049 270.8C63.4049 271.2 64.4049 271.2 65.2049 271.1C65.5049 271.2 65.9049 270.8 66.3049 270.7C65.1049 272.8 63.3049 271.9 61.4049 271.2C61.6049 273.8 61.1049 276.3 62.0049 278.8C62.7049 277.9 63.0049 277 63.5049 276.2C63.8049 275.7 64.3049 275.1 64.7049 275C67.4049 274.6 68.9049 271.5 69.1049 269.4C69.3049 267.3 67.5049 266 65.9049 264.9C64.5049 263.9 63.0049 264.5 62.0049 265.3C61.4049 265.8 61.4049 267.1 61.2049 268.1C61.3049 268.2 61.5049 268.2 61.6049 268.3C62.9049 267.2 64.3049 266.3 65.8049 267.6C67.0049 268.4 67.1049 269.5 66.3049 270.7ZM76.1049 260.9C76.9049 258.8 76.9049 258.3 75.8049 257.4C75.2049 259 75.3049 259.9 76.1049 260.9C75.9049 261.7 75.6049 262.5 75.2049 263.5C78.3049 263.1 79.5049 262.1 80.1049 259.6C80.2049 259.2 80.7049 258.5 81.0049 258.5C83.1049 258.3 84.1049 256.8 85.0049 255.1C86.5049 252.1 85.6049 249.6 82.5049 248.1C80.8049 247.3 76.5049 248.8 75.9049 250.8C75.4049 252.4 75.6049 254.3 75.5049 256C75.5049 256.2 75.9049 256.5 76.1049 256.7C77.6049 258 77.6049 259.4 76.1049 260.9ZM76.2049 267.9C77.5049 268.7 77.5049 270.1 76.7049 270.8C74.9049 272.4 75.6049 274.1 75.6049 275.9C75.5049 278 76.7049 278.8 78.2049 279.6C78.9049 280 79.6049 280.2 80.8049 280.7C79.5049 281.2 78.6049 281.3 78.0049 281.7C77.1049 282.4 76.0049 283.3 75.6049 284.3C75.2049 285.5 75.4049 286.9 75.4049 288.2C75.4049 288.6 75.4049 289.2 75.6049 289.3C77.4049 290.4 77.2049 292 76.6049 294.2C77.9049 293.8 79.6049 293.7 79.6049 293.3C79.8049 291.5 80.8049 291.2 82.2049 291.1C82.5049 291.1 82.9049 290.8 83.2049 290.5C85.5049 288.3 87.2049 283.9 82.8049 281.3C82.5049 281.1 82.2049 280.9 81.7049 280.6C81.9049 280.4 82.1049 280.2 82.3049 280.1C84.0049 278.9 85.9049 277.7 85.5049 275.3C85.1049 272.7 84.1049 270.4 81.1049 269.7C80.6049 269.6 79.9049 269 79.9049 268.6C79.8049 265.7 77.6049 265.3 75.7049 264.6C75.5049 264.7 75.3049 264.8 75.1049 264.9C75.6049 266 75.9049 267 76.2049 267.9C76.0049 268.1 75.5049 268.2 75.5049 268.4C75.4049 269.3 75.5049 270.1 75.5049 271.2C77.0049 270.2 77.0049 269.7 76.2049 267.9ZM90.2049 280.8C89.6049 281.2 89.1049 281.5 88.6049 281.8C87.2049 282.9 85.7049 284.2 86.3049 286.2C87.0049 288.6 87.5049 291.3 91.0049 291.4C91.4049 291.4 91.9049 291.9 92.0049 292.3C92.6049 294.2 93.2049 294.5 95.2049 293.9C94.7049 290.8 94.9049 290.4 96.8049 290C95.4049 290.7 95.1049 291.8 95.6049 293.1C95.805 293.6 96.5049 293.9 97.0049 294.3C97.2049 294.2 97.3049 294.2 97.5049 294.1C96.7049 292.3 97.505 291.8 99.1049 291.9C99.1049 290.5 99.2049 289.2 99.1049 288C99.1049 287.5 98.6049 287 98.3049 286.5C97.8049 286 96.9049 285.6 96.8049 285C96.4049 283.1 95.2049 282.2 93.5049 281.7C92.9049 281.5 92.4049 281.2 91.6049 280.9C92.305 280.6 92.6049 280.3 93.0049 280.3C95.1049 279.8 96.4049 278.6 96.9049 276.5C97.0049 276 97.3049 275.4 97.7049 275.3C99.6049 274.8 99.4049 273.5 99.2049 272.1C96.1049 272.2 95.3049 271.9 95.2049 270.2C95.1049 269.6 95.2049 268.6 95.6049 268.3C96.7049 267.6 97.9049 267.3 99.2049 266.7C99.4049 264.3 98.9049 263.9 96.5049 264.9C96.0049 265.1 95.4049 265.3 94.9049 265.5C93.305 266.1 92.3049 267.2 92.2049 269.1C92.2049 269.5 91.6049 270 91.2049 270.3C90.3049 270.8 89.0049 270.9 88.3049 271.6C85.5049 274.2 85.8049 277.6 88.9049 280C89.0049 280 89.5049 280.3 90.2049 280.8ZM101.105 255.5C100.205 256.4 100.005 260.6 100.905 262.2C101.505 261.4 102.105 260.6 102.605 259.9C102.305 260.2 102.105 260.5 101.805 260.7C103.205 262.1 104.705 263.5 106.105 264.8C106.005 264.2 106.005 263.7 105.905 263.1C104.505 264.6 103.105 266.1 101.805 267.6C102.005 267.8 102.305 268 102.505 268.2C101.905 267.5 101.405 266.7 100.605 265.7C100.605 268.4 100.605 270.7 100.605 272.9C100.805 272.9 100.905 272.9 101.105 273C101.505 271.8 102.005 270.7 102.405 269.6C103.405 271 104.005 272.5 105.105 273.4C106.905 274.8 109.005 275.9 109.405 278.4C109.405 278.5 109.505 278.5 109.505 278.5C110.405 278.9 111.205 279.4 112.105 279.8C112.105 278.9 112.105 278 112.105 277C112.005 276.1 111.705 275.2 111.805 274.4C111.905 272.2 112.305 270.1 112.405 267.9C112.505 266.6 111.805 265.5 110.405 265.1C109.605 264.9 108.905 264.5 107.805 264C109.005 263.6 109.905 263.3 110.605 263C111.105 262.8 112.005 262.4 112.005 262C112.105 259.5 112.105 257 112.105 254.6C112.105 253.5 112.005 252.3 112.105 251.2C112.105 250.3 112.305 249.4 112.505 248.4C109.905 248.5 108.805 249.9 108.305 253.4C105.305 253.9 103.205 255.4 103.005 258.9C102.905 258.8 102.705 258.8 102.605 258.7C102.105 257.7 101.605 256.6 101.105 255.5ZM93.2049 264.1C92.4049 262.8 91.6049 261.4 90.8049 260C90.7049 259.8 90.5049 259.5 90.3049 259.4C88.8049 258.5 87.3049 257.7 85.9049 256.8C82.7049 258.4 80.2049 260.9 78.7049 264C79.5049 265.5 80.3049 266.9 81.1049 268.3C81.2049 268.5 81.4049 268.8 81.6049 268.9C83.1049 269.8 84.6049 270.6 85.9049 271.3C87.2049 270.5 88.6049 269.7 90.0049 268.9C90.2049 268.8 90.505 268.6 90.6049 268.4C91.6049 267 92.5049 265.5 93.2049 264.1ZM98.9049 253.3C96.9049 253.9 96.9049 252.5 96.5049 251.5C95.6049 249 91.6049 247.2 89.5049 248.2C87.4049 249.2 86.0049 251.3 86.2049 252.8C86.7049 255.9 88.4049 257.9 91.0049 258.5C91.4049 258.6 91.9049 259 92.0049 259.4C92.3049 262.6 94.8049 263.3 97.2049 264C97.7049 264.1 98.9049 263.7 98.9049 263.4C99.0049 262.7 98.7049 261.8 98.4049 261.1C98.1049 260.4 97.6049 259.9 97.1049 259.3C97.7049 259 98.2049 258.8 98.9049 258.4C99.2049 257.3 98.4049 256.8 97.5049 256.8C96.8049 256.8 96.005 257.3 95.6049 257.8C95.2049 258.3 95.4049 259.2 95.3049 260C94.2049 257.4 95.2049 256.5 98.9049 256.4C98.9049 255.5 98.9049 254.5 98.9049 253.3ZM69.5049 288C70.8049 287.2 72.2049 286.5 73.4049 285.6C73.7049 285.4 74.0049 284.8 74.1049 284.4C74.2049 282 74.1049 279.5 74.1049 277.1C74.1049 276.7 73.9049 276.2 73.7049 276.1C72.2049 275.2 70.7049 274.3 69.5049 273.6C68.1049 274.4 66.6049 275.2 65.3049 276C65.0049 276.2 64.8049 276.4 64.6049 276.7C63.8049 278.1 63.0049 279.5 62.3049 280.8C63.0049 282.1 63.8049 283.5 64.7049 284.9C64.9049 285.2 65.1049 285.4 65.4049 285.6C66.7049 286.4 68.1049 287.2 69.5049 288ZM69.7049 254.9C70.2049 254.5 70.8049 253.5 71.5049 253.4C74.4049 252.7 74.3049 250.7 74.1049 248.4C74.0049 247.8 74.0049 247.3 74.1049 246.7C74.3049 244.4 74.1049 242.6 71.4049 241.7C69.8049 241.2 65.6049 241.9 64.7049 243.4C63.9049 244.8 63.0049 246.3 62.3049 247.6C63.0049 248.9 63.8049 250.3 64.6049 251.7C64.8049 252 65.0049 252.2 65.3049 252.4C66.7049 253.2 68.1049 254 69.7049 254.9ZM110.005 280.6C109.405 279.9 108.705 279.1 108.105 278.2C107.705 277.6 107.605 276.6 107.105 276.3C105.605 275.3 103.905 274.4 102.305 273.5C100.705 274.5 100.105 276 100.305 277.9C100.505 280 100.505 282.1 100.305 284.2C100.105 286.2 101.105 287.3 102.305 288.1C104.005 287.2 105.405 286.3 106.905 285.5C107.105 285.4 107.305 285.1 107.505 284.9C108.305 283.5 109.105 282.1 110.005 280.6ZM110.005 247.3C108.005 245.7 107.605 242.2 104.305 241.6C104.205 241.6 104.205 241.5 104.205 241.5C103.305 241.4 102.305 241 101.505 241.3C101.005 241.5 100.605 242.6 100.505 243.4C100.405 245.9 100.605 248.4 100.305 250.9C100.105 252.9 101.105 254 102.305 254.8C103.905 253.9 105.305 253.1 106.705 252.3C107.005 252.1 107.205 251.9 107.405 251.6C108.305 250.3 109.105 248.9 110.005 247.3ZM112.305 281.6C109.705 281.9 108.905 283 108.205 286.6C104.605 286.4 104.005 289.5 102.605 292.1C102.005 290.7 101.605 289.6 101.205 288.4C101.005 288.4 100.805 288.4 100.605 288.4C100.505 289.6 100.405 290.9 100.505 292.1C100.505 292.7 100.805 293.3 101.005 293.9C101.605 293.7 102.205 293.5 102.405 293.4C103.705 293.6 104.605 293.8 105.705 294C105.605 293.4 105.605 293.1 105.505 292.8C105.505 292.5 105.405 292.2 105.305 291.6C105.605 292 105.705 292.2 105.805 292.3C105.905 292.4 106.005 292.4 106.105 292.3C108.405 291.5 108.405 291.5 108.105 293.7C109.105 293.8 110.205 293.9 111.205 294C112.305 294.1 112.405 293.5 112.505 292.6C112.805 289.2 111.005 285.7 112.505 282.3C112.505 282.2 112.305 282 112.305 281.6ZM73.8049 239.4C73.8049 239.2 73.8049 239 73.8049 238.8C73.3049 238.8 72.7049 238.7 72.2049 238.7C68.7049 238.7 65.1049 238.8 61.6049 238.7C59.9049 238.6 59.4049 239.1 59.4049 240.9C59.5049 251 59.4049 261.1 59.4049 271.2C59.4049 279.1 59.4049 286.9 59.4049 294.8C59.4049 295.7 59.3049 296.6 60.7049 296.6C64.7049 296.5 68.7049 296.6 72.7049 296.6C73.2049 296.6 73.6049 296.4 74.1049 296.2C74.1049 296 74.1049 295.8 74.0049 295.6C69.5049 295.6 64.9049 295.6 60.3049 295.6C60.3049 293.6 60.3049 291.9 60.3049 290.2C60.3049 274 60.2049 257.8 60.1049 241.7C60.1049 240 60.7049 239.6 62.3049 239.6C65.6049 239.7 68.9049 239.6 72.2049 239.6C72.7049 239.5 73.2049 239.4 73.8049 239.4ZM100.505 295.5C100.505 295.7 100.505 296 100.405 296.2C101.005 296.3 101.505 296.4 102.105 296.5C105.505 296.5 108.905 296.4 112.305 296.6C114.105 296.7 114.505 296.1 114.505 294.4C114.405 276.5 114.505 258.5 114.505 240.6C114.505 240 114.405 239.4 114.405 238.9C109.705 238.9 105.205 238.9 100.705 238.9C100.705 239.1 100.705 239.2 100.705 239.4C101.205 239.5 101.705 239.6 102.205 239.6C105.305 239.7 108.505 239.8 111.605 239.7C113.205 239.7 113.605 240.2 113.605 241.7C113.605 257.7 113.605 273.7 113.605 289.7C113.605 291.6 113.605 293.4 113.605 295.5C109.105 295.5 104.805 295.5 100.505 295.5ZM61.5049 260.1C61.4049 263.1 62.9049 264.5 65.3049 263.9C67.1049 263.4 69.405 260.7 69.3049 259.2C69.1049 256.4 67.1049 253.9 64.8049 253.4C64.3049 253.3 63.9049 252.8 63.6049 252.3C63.1049 251.4 62.7049 250.3 62.3049 249.4C62.1049 249.4 61.9049 249.5 61.7049 249.5C61.7049 252.1 61.7049 254.6 61.7049 257C62.7049 256.8 63.8049 256.6 64.8049 256.4C64.8049 256.5 64.9049 256.7 64.9049 256.8C62.4049 256.8 61.8049 257.7 62.5049 260.4C62.2049 260.4 61.9049 260.2 61.5049 260.1ZM84.6049 190.5C85.1049 192.8 85.5049 195.1 86.1049 197.2C86.2049 197.6 86.8049 198.1 87.1049 198.1C87.5049 198.1 88.0049 197.6 88.2049 197.2C88.6049 196 89.0049 194.7 89.2049 193.4C89.7049 190.1 89.5049 186.9 88.1049 183.9C87.9049 183.5 87.4049 183.2 87.1049 182.8C86.8049 183.1 86.2049 183.4 86.1049 183.9C85.5049 186.1 85.0049 188.3 84.6049 190.5ZM62.4049 282.4C62.2049 282.5 62.0049 282.6 61.8049 282.7C61.8049 285.3 61.8049 287.9 61.8049 290.4C62.2049 290.2 62.8049 290 63.3049 289.7C62.3049 290.7 61.8049 291.7 62.5049 293C62.8049 293.5 63.4049 293.8 63.7049 294C64.1049 293 64.3049 292.4 64.6049 291.8C65.4049 292.4 66.2049 293 67.1049 293.6C67.0049 293.7 66.905 293.9 66.8049 294C68.0049 294.1 69.6049 294.3 69.3049 292.5C69.1049 290.9 68.5049 288.9 67.3049 287.9C65.3049 286.4 62.7049 285.6 62.4049 282.4ZM88.5049 241.2C87.2049 240.9 86.4049 241.1 86.2049 242.5C85.9049 244.7 89.5049 247.7 91.7049 247.3C95.1049 246.6 96.305 244.2 97.1049 241.2C96.005 241.2 95.0049 241.2 94.0049 241.2C93.7049 244 92.9049 245.1 91.2049 245C89.4049 245 88.7049 244.1 88.5049 241.2ZM74.4049 263.9C74.0049 262.7 73.9049 261.6 73.4049 261.2C72.1049 260.3 72.6049 259.7 73.3049 259C73.905 258.3 74.5049 254.6 73.905 254.1C73.6049 253.8 72.7049 253.8 72.5049 254C71.6049 255.1 70.7049 256.3 70.1049 257.6C69.0049 260.2 70.8049 263.1 74.4049 263.9ZM74.4049 264.6C72.3049 264.8 70.405 266.4 69.8049 268.2C69.405 269.5 70.6049 273 71.9049 273.9C72.4049 274.3 73.2049 274.3 73.8049 274.5C73.905 273.7 74.0049 273 74.0049 272.2C74.0049 271.9 73.5049 271.6 73.2049 271.2C74.6049 270.7 74.3049 270.1 73.4049 269.4C72.6049 268.7 72.2049 268 73.3049 267.1C73.905 266.7 74.0049 265.6 74.4049 264.6ZM75.6049 295.5C75.6049 295.7 75.5049 295.9 75.5049 296.1C76.0049 296.2 76.5049 296.5 77.0049 296.5C78.9049 296.5 80.9049 296.5 82.8049 296.5C87.6049 296.5 92.5049 296.5 97.3049 296.5C97.9049 296.5 98.4049 296.3 99.0049 296.1C99.0049 295.9 98.9049 295.7 98.9049 295.5C91.2049 295.5 83.4049 295.5 75.6049 295.5ZM85.7049 289.9C85.0049 291.9 82.1049 291.6 80.8049 294.1C84.2049 294.1 87.1049 294.1 90.1049 294.1C90.4049 294.1 90.6049 293.8 90.9049 293.6C90.7049 293.3 90.5049 292.8 90.2049 292.6C88.8049 291.7 87.4049 290.9 85.7049 289.9ZM98.8049 239.2C98.8049 239.1 98.8049 238.9 98.8049 238.8C91.1049 238.8 83.5049 238.8 75.8049 238.8C75.8049 238.9 75.8049 239.1 75.8049 239.2C83.5049 239.2 91.1049 239.2 98.8049 239.2ZM98.9049 276.1C98.805 276 98.6049 276 98.5049 275.9C97.4049 277.6 96.3049 279.2 95.3049 280.8C96.4049 282.5 97.5049 284.2 98.5049 285.8C98.6049 285.7 98.805 285.6 98.9049 285.6C98.9049 282.4 98.9049 279.2 98.9049 276.1ZM98.8049 242.8C98.7049 242.8 98.6049 242.8 98.5049 242.7C97.4049 244.3 96.3049 246 95.3049 247.5C96.4049 249.2 97.5049 250.9 98.5049 252.5C98.6049 252.4 98.7049 252.3 98.8049 252.3C98.8049 249.2 98.8049 246 98.8049 242.8ZM72.7049 290.9C72.7049 290.8 72.6049 290.8 72.6049 290.7C73.0049 290.4 73.6049 290.1 73.7049 289.7C73.9049 289 73.905 288.2 73.905 287.5C73.3049 287.5 72.6049 287.4 72.2049 287.6C71.0049 288.2 69.4049 291.5 69.7049 292.8C69.8049 293.3 70.405 293.9 70.8049 294C71.3049 294.1 72.0049 293.8 72.5049 293.4C73.0049 293 73.4049 292.4 73.7049 291.8C73.9049 291.4 74.0049 291 74.3049 290.2C73.4049 290.6 73.0049 290.7 72.7049 290.9ZM111.405 240.9C109.905 241 108.405 241.1 107.205 241.1C107.705 241.9 108.205 242.5 108.505 243.2C109.205 245.2 110.405 246.4 112.605 246.6C112.205 244.7 111.805 242.9 111.405 240.9ZM102.505 266.6C103.405 265.7 104.605 264.9 104.505 264.3C104.405 263.5 103.405 262.4 102.605 262.3C102.105 262.2 100.705 263.4 100.705 264C100.705 264.8 101.705 265.6 102.505 266.6ZM67.3049 263.8C67.3049 264 67.3049 264.3 67.3049 264.5C68.1049 265 68.9049 266 69.7049 266C70.3049 266 71.4049 264.9 71.4049 264.2C71.4049 263.6 70.3049 262.3 69.8049 262.3C68.905 262.4 68.1049 263.3 67.3049 263.8ZM88.4049 280.8C87.5049 280 86.8049 278.9 86.1049 278.9C85.4049 278.9 84.3049 280 84.2049 280.7C84.2049 281.4 85.3049 282.5 85.9049 282.6C86.6049 282.6 87.4049 281.6 88.4049 280.8ZM97.7049 267.3C96.1049 267.2 95.5049 268 95.4049 269.4C95.305 270.7 96.1049 271.3 97.2049 271.4C98.3049 271.5 98.8049 270.9 98.8049 269.7C96.8049 269.6 96.7049 269.3 97.7049 267.3ZM86.0049 249.8C86.8049 249 87.5049 248.4 88.0049 247.9C86.3049 245.3 85.7049 245.3 84.0049 247.7C84.6049 248.3 85.2049 248.9 86.0049 249.8ZM89.2049 241.9C90.2049 242.1 91.1049 242 91.4049 242.4C91.7049 242.8 91.4049 243.7 91.3049 244.5C92.6049 244.2 93.2049 243.4 93.0049 242.2C92.9049 241.8 92.4049 241.2 92.0049 241.2C91.1049 241.1 89.8049 240.5 89.2049 241.9ZM62.3049 245C62.8049 243.8 63.3049 242.5 63.9049 241.2C61.4049 240.9 60.9049 242 62.3049 245ZM75.6049 290.2C75.6049 291.6 75.6049 292.6 75.6049 293.8C77.0049 292.8 77.1049 291.7 75.6049 290.2Z" fill="white" fill-opacity="0.3"/>
<path d="M7.90682 -2.9C7.80682 -2.6 7.90682 -2.2 7.70682 -2.1C6.60682 -1.2 6.40682 -0.2 7.10682 1C7.20682 1.2 7.10682 1.8 6.90682 2C5.10682 3.6 5.70682 5.7 5.70682 7.6C5.70682 17.3 5.70682 27.1 5.70682 36.8C5.70682 37.9 5.70682 38.8 7.10682 39.1C7.50682 39.2 8.00682 40.2 8.00682 40.7C8.00682 41.2 7.30682 42 6.80682 42.1C5.80682 42.3 5.70682 42.9 5.80682 43.7C5.80682 46.9 5.80682 50.1 5.80682 53.3C5.80682 66.5 5.80682 79.8 5.80682 93C5.80682 96 5.80682 98.9 5.80682 101.9C5.80682 102.4 5.90682 103 6.20682 103.3C8.50682 105.4 9.00682 108.2 9.10682 111.1C9.30682 114.6 9.10682 118 7.40682 121.2C6.90682 122.1 6.80682 123.1 6.40682 124.1C8.70683 126.4 8.70682 126.7 7.20682 129.6C6.90682 130.2 7.50682 131.4 8.00682 132C10.5068 134.8 13.8068 136.5 17.1068 138.1C20.6068 139.8 24.0068 141.6 27.1068 143.9C32.5068 148.1 34.2068 154.1 34.2068 160.8C34.2068 178.9 34.2068 197.1 34.1068 215.2C34.1068 218.8 33.9068 222.4 33.2068 225.9C31.9068 232 27.6068 235.9 22.4068 238.9C20.4068 240.1 18.2068 241 16.1068 241.9C11.3068 244.1 7.30682 247.1 5.20682 252.1C4.00682 250.4 3.20682 248.6 1.80682 247.3C-0.293182 245.4 -2.69318 243.6 -5.19318 242.3C-9.39318 240.2 -13.6932 238.5 -17.2932 235.3C-21.8932 231.1 -23.8932 225.9 -23.8932 219.8C-23.8932 208.9 -23.8932 197.9 -23.8932 187C-23.8932 178.3 -23.7932 169.6 -23.9932 160.8C-24.1932 151.3 -19.9932 144.7 -11.7932 140.3C-8.49318 138.6 -5.09318 137.1 -1.89318 135.2C0.00682068 134.1 1.50682 132.4 3.10682 130.8C3.40682 130.5 3.60682 129.7 3.40682 129.3C2.00682 126.1 1.90682 126 4.40682 123.7C1.80682 118.8 0.706823 113.6 2.00682 108.1C2.40682 106.4 3.60682 104.8 4.30682 103.1C4.70682 102.3 4.80682 101.3 4.90682 100.4C4.90682 90.7 4.90682 80.9 4.90682 71.2C4.90682 62.3 4.90682 53.3 4.90682 44.4C4.90682 43.3 4.60682 42.8 3.50682 42.3C2.80682 42 1.90682 40.8 1.90682 40.1C1.90682 39.3 2.80682 38.2 3.60682 38C4.70682 37.6 4.80682 37.1 4.80682 36.1C4.80682 29.3 4.80682 22.4 4.70682 15.6C4.70682 14.9 4.20682 14.2 3.90682 13.4C5.70682 11.1 4.10682 8.3 4.80682 5.6C3.30682 5.4 2.10682 5.1 3.50682 3.5C3.70682 3.3 3.40682 2.6 3.20682 2.1C2.70682 1 3.00682 0.1 3.80682 -0.8C4.30682 -1.4 4.50682 -2.3 4.90682 -3C5.80682 -2.9 6.80682 -2.9 7.90682 -2.9ZM-0.993177 166.8C-1.09318 166.5 -1.19318 166.3 -1.19318 166C-1.19318 165.5 -1.39318 164.9 -1.19318 164.6C-0.993181 164.3 -0.293179 164.4 0.106821 164.4C0.306822 164.4 0.606825 164.5 0.906824 164.5C0.406824 163.1 0.406822 163 -0.993177 163.1C-1.69318 163.2 -2.79318 163.6 -2.79318 164C-2.89318 164.7 -2.49318 165.5 -2.09318 166.2C-1.99318 166.6 -1.39318 166.6 -0.993177 166.8C-2.59318 167.3 -3.49318 166.6 -3.69318 164.5C-3.79318 163.2 -4.49318 163.2 -5.39318 163.3C-6.49318 163.4 -6.19318 164.1 -6.19318 164.8C-6.19318 166.9 -4.89318 168 -3.29318 168.9C-2.59318 169.3 -1.89318 169.5 -1.19318 169.9C-1.39318 170.1 -1.39318 170.2 -1.49318 170.3C-1.69318 170.4 -1.89318 170.5 -2.09318 170.5C-5.29318 171 -6.49318 173 -6.39318 176.1C-6.39318 176.5 -6.49318 176.9 -6.39318 177.3C-6.19318 178 -5.99318 178.7 -5.49318 179.3C-4.59318 180.3 -4.49318 180.8 -4.99318 182.1C-5.19318 181.4 -5.39318 180.6 -5.69318 179.8C-5.79318 179.8 -5.99318 179.9 -6.09318 179.9C-6.09318 181.9 -6.09318 183.9 -6.09318 186C-3.09318 185.4 -2.29318 184.6 -1.69318 181.8C-1.59318 181.4 -0.993176 181 -0.593176 180.8C2.20682 180 3.70682 178.3 3.90682 175.3C4.10682 172.9 2.40682 171.6 0.606821 170.5C0.40682 170.4 0.206823 170.2 -0.0931759 170C0.606825 169.6 1.20682 169.3 1.50682 168.8C2.30682 167.7 3.40682 166.6 3.80682 165.3C4.30682 163.7 3.40682 163.1 1.70682 163.5C1.00682 166.9 0.906822 167.1 -0.993177 166.8ZM15.1068 183.6C15.3068 183.4 15.7068 183 15.7068 182.9C14.1068 180.8 15.8068 181 17.3068 180.9C17.1068 180.2 16.9068 179.6 16.8068 179.1C17.6068 177.2 17.4068 176.4 15.8068 175.6C15.4068 175.4 14.9068 174.9 14.8068 174.5C14.4068 172.2 12.9068 171.1 10.9068 170.6C10.4068 170.5 9.90683 170.2 9.40683 170C9.30683 169.9 9.30682 169.7 9.20682 169.6C13.4068 169.5 14.3068 166.2 15.6068 163.5C14.5068 163.5 13.3068 163.5 12.1068 163.5C11.7068 166.2 11.2068 167.2 9.90683 167.2C9.10683 167.2 8.10682 167.2 7.70682 166.7C7.20682 166 7.20682 164.9 6.90682 164.1C6.80682 163.8 6.30682 163.3 6.00682 163.4C5.50682 163.5 4.70682 163.9 4.70682 164.2C4.70682 165.2 4.70682 166.3 5.20682 167.1C5.90682 168.4 6.90682 169.4 7.80682 170.6C7.80682 170.5 7.40682 170.8 7.00682 171.1C5.60682 172.1 4.10682 173.4 4.40682 175.2C4.80682 177.5 5.50683 180 8.40683 180.6C9.60683 180.9 10.5068 181.3 10.3068 182.8C10.2068 183.3 10.8068 184 11.2068 184.3C12.3068 185 13.4068 185.7 14.6068 186.1C15.3068 186.4 16.4068 186.4 16.9068 186C17.3068 185.7 17.2068 184.6 17.3068 183.7C16.3068 183.6 15.7068 183.6 15.1068 183.6ZM4.20682 197.5C3.30682 194.4 1.60682 192.2 -1.79318 192C-1.59318 189.2 -2.89318 187.8 -6.79318 187C-6.29318 188.1 -6.19318 189.1 -5.59318 189.8C-4.69318 190.9 -4.19318 192.3 -5.29318 193.2C-6.89318 194.6 -6.59318 196.2 -6.39318 197.9C-6.29318 199 -6.09318 200.3 -5.39318 201C-2.49318 203.9 1.50682 203.3 3.50682 199.7C3.70682 199.4 3.80682 199.1 3.90682 198.8C4.10682 198.9 4.20682 199 4.30682 199C5.30682 201 6.60682 202.8 9.10682 202.7C12.0068 202.5 14.3068 201.1 14.9068 197.9C15.0068 197.6 15.3068 197.1 15.6068 197.1C17.6068 196.7 17.0068 195.3 17.0068 194C15.5068 194 13.8068 194.7 13.1068 192.8C12.6068 191.5 13.0068 190.4 13.9068 189.7C13.9068 190.8 13.7068 191.9 14.0068 193C14.1068 193.3 15.5068 193.5 16.3068 193.4C16.7068 193.4 17.0068 192.6 17.2068 192.2C16.3068 191.9 15.7068 191.7 15.1068 191.5C15.4068 190.9 15.7068 190.4 16.0068 189.9C16.1068 189.7 16.6068 189.6 16.7068 189.4C16.9068 188.8 17.1068 188.1 17.0068 187.5C17.0068 187.2 16.4068 186.7 16.0068 186.6C13.9068 186.1 10.3068 188.5 10.0068 190.7C9.80682 191.9 9.20682 192.4 8.20682 192.6C6.40682 192.9 5.50682 194.1 4.90682 195.6C4.60682 196.3 4.40682 196.9 4.20682 197.5ZM-8.19318 186.7C-10.4932 187.2 -11.3932 189.1 -12.3932 190.5C-13.7932 189 -15.1932 187.6 -16.5932 186.2C-16.3932 186.5 -16.1932 186.8 -15.9932 187.1C-14.5932 185.7 -13.2932 184.2 -11.9932 182.9C-11.3932 183.9 -10.2932 185.6 -8.09318 186.1C-7.59318 184.2 -7.59318 184.3 -8.79318 183.2C-9.09318 182.9 -9.39318 182.2 -9.29318 182.1C-8.19318 181.2 -7.89318 179.9 -7.99318 178.6C-7.99318 177.7 -8.19318 176.9 -8.19318 176C-8.99318 176.3 -9.89318 176.6 -10.4932 177.1C-10.9932 177.5 -11.1932 178.2 -11.4932 178.8C-11.7932 179.4 -11.9932 180.1 -12.3932 181.1C-12.7932 180.2 -13.0932 179.6 -13.3932 179.1C-13.8932 178.2 -14.2932 176.7 -14.9932 176.6C-17.6932 176 -18.5932 174 -19.6932 172C-19.6932 171.9 -19.8932 172 -20.2932 171.9C-20.2932 174.5 -20.2932 177 -20.2932 179.3C-19.1932 179.1 -18.0932 178.9 -16.8932 178.6C-16.8932 178.8 -16.7932 178.9 -16.7932 179.1C-19.7932 179.1 -20.4932 180.1 -19.2932 182.8C-19.6932 182.7 -19.9932 182.5 -20.3932 182.4C-20.8932 184.5 -20.2932 185.9 -17.4932 186.2C-18.6932 186.7 -19.1932 186.9 -19.6932 187.2C-20.4932 187.6 -20.8932 190 -20.1932 190.3C-19.7932 190.1 -19.4932 189.8 -19.4932 189.8C-19.4932 190.7 -19.7932 191.8 -19.3932 192.7C-19.1932 193.2 -17.7932 193.5 -17.0932 193.3C-16.4932 193.1 -15.9932 192.2 -15.4932 191.6C-15.5932 191.5 -15.7932 191.3 -15.8932 191.2C-16.1932 191.4 -16.4932 191.7 -16.7932 191.8C-17.0932 191.9 -17.5932 191.9 -17.6932 191.7C-17.8932 191.4 -18.0932 190.9 -17.9932 190.7C-17.6932 190.2 -17.1932 189.7 -16.5932 189.6C-16.2932 189.5 -15.5932 190.1 -15.3932 190.5C-14.5932 192.2 -15.5932 194 -17.4932 194C-18.3932 194 -19.2932 193.7 -20.3932 193.5C-20.1932 196 -20.7932 198.5 -19.6932 201C-18.9932 200.1 -18.6932 199.1 -18.1932 198.1C-17.9932 197.6 -17.5932 197 -17.1932 196.9C-14.7932 196.8 -13.7932 195.3 -13.1932 193.3C-12.9932 192.8 -12.6932 192.3 -12.3932 191.5C-11.9932 192.5 -11.6932 193.1 -11.3932 193.8C-10.8932 194.7 -10.3932 195.6 -9.69318 196.3C-9.39318 196.6 -8.59318 196.7 -8.19318 196.5C-7.89318 196.4 -7.69318 195.6 -7.79318 195.2C-8.09318 194.3 -8.59318 193.5 -8.89318 192.9C-8.69318 192.9 -8.29318 193 -7.79318 193C-7.99318 192.5 -8.09318 192 -8.39318 191.6C-8.69318 191.2 -9.09318 190.8 -9.49318 190.3C-8.59318 189.5 -6.99318 188.7 -8.19318 186.7ZM25.7068 186.4C26.8068 186 27.6068 185.6 28.4068 185.4C29.7068 185.1 30.4068 184.4 30.4068 183.1C30.3068 180.8 30.9068 178.4 29.8068 176.1C29.5068 175.5 29.9068 174.5 30.0068 173.7C30.2068 172.7 30.4068 171.8 30.6068 170.8C28.3068 170.9 26.9068 172 26.6068 174.3C26.4068 175.5 26.0068 176 24.9068 176.2C22.0068 176.6 21.4068 179 20.9068 181.2C20.5068 183.1 22.0068 184.2 23.2068 185.3C23.7068 185.7 24.3068 186.1 24.8068 186.4C24.6068 186.2 24.4068 186.1 24.2068 185.9C22.8068 187.3 21.4068 188.7 20.0068 190.1C20.2068 190.3 20.4068 190.5 20.6068 190.7C20.1068 189.9 19.5068 189.2 18.8068 188.1C18.1068 190.8 18.3068 194.4 19.2068 195.3C19.6068 194.2 20.1068 193 20.6068 191.7C20.9068 192.3 21.1068 192.6 21.3068 192.9C22.1068 195 23.0068 196.9 25.7068 197C26.0068 197 26.4068 197.8 26.5068 198.2C27.0068 200.7 28.0068 201.8 30.5068 202.1C30.4068 201.1 30.6068 200 30.2068 199.3C29.1068 197.6 29.5068 195.8 30.1068 194.2C31.5068 190.2 30.6068 188.1 26.7068 186.7C26.5068 186.8 26.3068 186.7 25.7068 186.4ZM4.10682 179.2C2.80682 180 1.40682 180.7 0.00682259 181.6C-0.193178 181.7 -0.493176 181.9 -0.593176 182.1C-1.39318 183.6 -2.29318 185.1 -2.99318 186.5C-2.19318 187.9 -1.39318 189.3 -0.593176 190.8C-0.493176 191 -0.393183 191.2 -0.193182 191.3C1.30682 192.1 2.80682 192.9 4.20682 193.7C5.50682 192.9 7.00683 192.1 8.40683 191.3C8.60683 191.2 8.80683 191 8.90683 190.8C9.80683 189.3 10.6068 187.8 11.4068 186.4C10.6068 185.1 9.80682 183.7 9.00682 182.3C8.80682 182 8.60682 181.8 8.30682 181.6C6.80682 180.8 5.40682 180 4.10682 179.2ZM-12.4932 195.8C-13.8932 196.6 -15.3932 197.4 -16.7932 198.2C-16.9932 198.3 -17.1932 198.6 -17.2932 198.8C-18.0932 200.2 -18.8932 201.7 -19.6932 203C-18.8932 204.4 -18.0932 205.9 -17.2932 207.3C-17.1932 207.5 -16.9932 207.7 -16.8932 207.8C-15.3932 208.6 -13.8932 209.5 -12.4932 210.2C-11.2932 209.5 -9.89318 208.7 -8.59318 207.9C-8.19318 207.6 -7.89318 207 -7.89318 206.6C-7.79318 204.2 -7.79318 201.8 -7.89318 199.4C-7.89318 199 -8.19318 198.4 -8.49318 198.2C-9.79318 197.3 -11.1932 196.6 -12.4932 195.8ZM-12.1932 177.2C-11.6932 176.8 -11.1932 175.9 -10.3932 175.7C-7.49318 175 -7.59318 173 -7.79318 170.8C-7.89318 170.2 -7.89318 169.7 -7.79318 169.1C-7.59318 166.9 -7.59318 164.9 -10.3932 164.3C-11.1932 164.1 -12.0932 163.2 -12.5932 163.4C-14.1932 164 -15.8932 164.7 -17.0932 165.8C-18.2932 166.9 -18.8932 168.7 -19.5932 170C-18.7932 171.4 -18.0932 172.7 -17.2932 174.1C-17.0932 174.4 -16.9932 174.7 -16.6932 174.8C-15.3932 175.5 -13.8932 176.3 -12.1932 177.2ZM17.4068 212.2C17.0068 211 16.9068 209.4 16.3068 209.2C14.9068 208.7 14.7068 207.9 14.4068 206.8C13.8068 204.7 10.3068 202.8 8.20682 203.3C6.40682 203.8 4.20682 206.2 4.10682 207.7C4.00682 210.1 6.00682 212.9 8.00682 213.5C8.90683 213.8 9.80682 214.1 10.1068 215.3C10.2068 215.8 11.2068 216.3 11.8068 216.3C13.0068 216.5 14.3068 216.3 15.4068 216.3C15.3068 215.5 15.0068 214.8 15.2068 214.3C15.3068 214 16.2068 214.1 16.9068 213.9C17.3068 212.8 16.6068 212.2 15.6068 212.2C14.9068 212.2 14.1068 212.5 13.7068 213C13.3068 213.5 13.3068 214.4 13.1068 215.1C12.6068 212.4 13.3068 211.8 17.4068 212.2ZM20.4068 210.4C22.0068 209.5 23.4068 208.7 24.8068 207.9C25.0068 207.8 25.3068 207.6 25.4068 207.4C26.3068 205.9 27.2068 204.4 28.0068 203C27.2068 201.6 26.4068 200.3 25.6068 198.9C25.5068 198.7 25.3068 198.4 25.1068 198.3C23.6068 197.4 22.1068 196.6 20.4068 195.7C19.1068 196.5 18.3068 197.8 18.4068 199.7C18.6068 201.8 18.6068 203.9 18.4068 206C18.2068 208 18.8068 209.4 20.4068 210.4ZM27.9068 169.8C27.1068 168.4 26.2068 167 25.4068 165.6C25.3068 165.4 25.0068 165.2 24.8068 165.1C23.8068 164.5 22.7068 164 21.7068 163.4C20.2068 162.6 18.6068 163.6 18.6068 165.3C18.6068 168 18.6068 170.8 18.4068 173.5C18.3068 175.5 19.3068 176.5 20.4068 177.2C22.0068 176.3 23.3068 175.5 24.7068 174.7C24.9068 174.6 25.2068 174.4 25.4068 174.2C26.3068 172.7 27.1068 171.2 27.9068 169.8ZM-1.59318 214.1C0.706823 213.7 2.60682 212.7 3.30682 210.2C4.20682 207.3 3.60682 205.4 1.00682 203.8C-0.593178 202.9 -3.99318 203.5 -5.39318 205.1C-5.79318 205.6 -6.19318 206.2 -6.29318 206.9C-6.49318 208.1 -6.59318 209.4 -6.59318 210.6C-6.59318 211.2 -6.19318 211.9 -5.79318 212.3C-4.89318 213.2 -4.69318 214.1 -5.19318 215.4C-5.49318 214.4 -5.69318 213.6 -5.89318 212.8C-6.89318 215.3 -6.69318 215.9 -5.09318 216.3C-3.09318 216.8 -2.09318 216.1 -1.59318 214.1ZM-10.0932 216.5C-7.99318 214.1 -7.39318 211.8 -8.19318 209.2C-11.1932 209.5 -11.6932 211.9 -12.4932 214.5C-12.9932 213.5 -13.1932 212.9 -13.3932 212.4C-14.0932 210.5 -14.9932 209 -17.2932 208.9C-17.6932 208.9 -18.0932 208.1 -18.3932 207.6C-18.8932 206.8 -19.1932 205.9 -19.6932 205C-19.8932 205 -20.0932 205.1 -20.2932 205.1C-20.6932 207.6 -20.4932 210.2 -20.5932 212.9C-18.0932 211.6 -17.3932 211.6 -16.4932 212.5C-17.1932 212.6 -18.3932 212.5 -19.2932 213C-19.6932 213.2 -19.8932 214.6 -19.5932 215.3C-19.3932 215.9 -18.4932 216.2 -17.7932 216.7C-17.8932 215.7 -17.9932 215 -17.8932 214.4C-17.8932 214.3 -17.0932 214 -16.9932 214.2C-16.3932 214.8 -15.7932 215.6 -14.9932 216.6C-14.3932 216.4 -13.3932 216.1 -12.6932 215.9C-11.5932 216.1 -10.6932 216.4 -10.0932 216.5ZM-7.89318 218.5C-7.89318 218.3 -7.89318 218.2 -7.89318 218C-8.49318 217.9 -8.99318 217.7 -9.59318 217.7C-13.0932 217.7 -16.5932 217.6 -19.9932 217.7C-21.2932 217.7 -21.7932 217.4 -21.7932 216C-21.6932 206.7 -21.7932 197.4 -21.7932 188.1C-21.7932 180.1 -21.8932 172.1 -21.8932 164.2C-21.8932 161.7 -21.8932 161.7 -19.4932 161.7C-16.3932 161.7 -13.2932 161.7 -10.2932 161.7C-9.59318 161.7 -8.89318 161.6 -8.29318 161.6C-8.29318 161.4 -8.29318 161.2 -8.29318 161.1C-8.89318 161 -9.39318 160.9 -9.99318 160.9C-12.7932 160.9 -15.6932 160.9 -18.4932 160.9C-22.5932 160.9 -22.5932 160.9 -22.6932 164.9C-22.6932 165 -22.6932 165.1 -22.6932 165.2C-22.6932 182.4 -22.6932 199.6 -22.7932 216.8C-22.7932 218.2 -22.4932 218.7 -20.9932 218.7C-17.1932 218.6 -13.4932 218.7 -9.69318 218.6C-8.99318 218.7 -8.39318 218.6 -7.89318 218.5ZM28.7068 216.5C29.0068 216.4 30.3068 216.2 30.3068 215.9C30.3068 213.9 30.1068 211.9 30.0068 209.9C29.9068 208.9 30.0068 207.9 30.1068 206.9C30.2068 205.9 30.4068 204.9 30.6068 203.8C28.1068 204.1 26.9068 205.3 26.6068 207.7C26.5068 208.6 26.2068 208.9 25.3068 209.1C24.4068 209.3 23.4068 209.8 22.8068 210.4C21.9068 211.5 21.3068 212.8 20.5068 214.2C20.0068 212.9 19.6068 211.8 19.1068 210.7C18.9068 210.7 18.7068 210.7 18.5068 210.7C18.4068 211.9 18.3068 213.2 18.4068 214.4C18.4068 215 18.7068 215.6 18.9068 216.2C19.5068 216 20.1068 215.8 20.5068 215.6C21.6068 215.9 22.6068 216.1 23.9068 216.4C23.2068 214.5 23.0068 212.9 24.6068 212.1C25.4068 211.7 27.1068 211.6 27.4068 212.1C28.1068 213.3 28.2068 214.7 28.7068 216.5ZM5.30682 104.6C4.70682 105.2 4.40682 105.4 4.30682 105.7C2.40682 110.3 2.50682 114.9 4.10682 119.5C4.20682 119.9 4.90682 120.3 5.20682 120.3C5.60682 120.3 6.00682 119.7 6.20682 119.3C7.80682 115.5 7.70682 111.6 6.80682 107.7C6.50682 106.8 5.90682 105.9 5.30682 104.6ZM18.7068 161.2C18.7068 161.3 18.7068 161.5 18.7068 161.6C19.2068 161.7 19.7068 161.7 20.2068 161.7C23.3068 161.7 26.5068 161.9 29.6068 161.8C31.4068 161.7 31.8068 162.4 31.8068 164C31.7068 173.2 31.7068 182.5 31.8068 191.7C31.8068 192.4 32.0068 193.1 32.1068 193.7C32.3068 193.7 32.5068 193.6 32.7068 193.6C32.7068 192 32.7068 190.4 32.7068 188.9C32.7068 180 32.7068 171.1 32.7068 162.2C32.7068 161.4 32.7068 160.6 31.5068 160.6C27.6068 160.7 23.6068 160.7 19.7068 160.8C19.3068 160.9 19.0068 161.1 18.7068 161.2ZM18.6068 217.9C18.6068 218.1 18.6068 218.2 18.5068 218.4C18.8068 218.5 19.2068 218.7 19.5068 218.7C23.4068 218.7 27.4068 218.7 31.3068 218.8C32.5068 218.8 32.5068 218.2 32.5068 217.3C32.5068 210.8 32.5068 204.3 32.5068 197.8C32.5068 197.4 32.4068 196.9 32.3068 196.5C32.1068 196.5 32.0068 196.5 31.8068 196.5C31.7068 197.1 31.6068 197.8 31.6068 198.4C31.6068 204.3 31.6068 210.2 31.6068 216.2C31.6068 217.4 31.2068 217.8 30.0068 217.8C26.8068 217.7 23.6068 217.8 20.4068 217.8C19.9068 217.7 19.2068 217.8 18.6068 217.9ZM4.00682 211.9C3.10682 214.4 -0.0931816 213.9 -1.19318 216.3C2.40682 216.3 5.60682 216.3 9.30682 216.3C8.00682 214 5.10682 214.2 4.00682 211.9ZM-6.79318 217.9C-5.09318 219 16.1068 218.9 17.0068 217.9C9.20683 217.9 1.40682 217.9 -6.79318 217.9ZM16.6068 208C16.7068 207.9 16.9068 207.8 17.0068 207.7C17.0068 204.6 17.0068 201.4 17.0068 198.3C16.9068 198.2 16.7068 198.1 16.6068 198C15.5068 199.7 14.4068 201.3 13.3068 203C14.4068 204.7 15.5068 206.3 16.6068 208ZM17.0068 165.3C16.8068 165.2 16.7068 165.2 16.5068 165.1C15.4068 166.7 14.3068 168.4 13.3068 170C13.9068 170.8 14.6068 171.6 15.2068 172.5C15.8068 173.2 15.3068 174.8 17.0068 174.7C17.0068 171.5 17.0068 168.4 17.0068 165.3ZM30.6068 169.1C30.2068 167.1 29.9068 165.3 29.5068 163.5C29.5068 163.3 29.1068 163.1 28.8068 163.1C27.4068 163.1 26.0068 163.2 25.0068 163.3C25.6068 164.3 26.4068 165.1 26.7068 166.1C27.4068 167.8 28.5068 168.8 30.6068 169.1ZM17.2068 161.6C15.5068 160.7 -5.09318 160.7 -6.19318 161.6C1.60682 161.6 9.20682 161.6 17.2068 161.6ZM18.1068 186.4C19.2068 187.3 19.9068 188.3 20.7068 188.3C21.4068 188.3 22.7068 187.1 22.6068 186.5C22.5068 185.7 21.5068 184.5 20.7068 184.5C20.0068 184.4 19.2068 185.6 18.1068 186.4ZM-14.6932 186.7C-13.9932 187.3 -13.3932 188 -12.5932 188.7C-11.7932 187.9 -11.0932 187.3 -10.3932 186.6C-12.4932 183.8 -12.9932 183.8 -14.6932 186.7ZM19.2068 177.8C18.3068 178.6 18.1068 182.6 18.8068 184.4C21.0068 182.7 21.0068 181.9 19.2068 177.8ZM26.1068 216.4C27.5068 216.5 27.8068 215.3 27.9068 214.2C27.9068 213.1 27.2068 212.4 26.1068 212.4C24.7068 212.5 23.9068 213.2 23.8068 214.6C24.6068 214.5 25.3068 214.3 26.0068 214.2C26.0068 214.9 26.0068 215.6 26.1068 216.4ZM2.10682 169.7C2.80682 170.6 3.30682 171.3 3.80682 172C6.50682 170.1 6.50682 169.5 3.90682 167.9C3.30682 168.5 2.70682 169.1 2.10682 169.7ZM6.10682 202.9C5.50682 202.3 4.90682 201.5 4.10682 200.7C3.20682 201.6 2.60682 202.3 1.80682 203.1C2.60682 203.9 3.30682 204.5 4.10682 205.3C4.80682 204.5 5.30682 203.9 6.10682 202.9ZM9.40683 166.6C10.9068 165.9 11.4068 165.3 11.1068 164.2C10.7068 162.7 9.50682 163.2 8.60682 163.3C8.10682 163.3 7.60682 164 7.20682 164.3C7.30682 164.4 7.40682 164.6 7.50682 164.7C9.50682 164 9.70683 164.3 9.40683 166.6ZM-19.7932 167.6C-18.9932 166 -18.2932 164.6 -17.4932 163.1C-18.3932 163.3 -19.7932 163.2 -20.0932 163.8C-20.5932 164.8 -20.7932 166.2 -19.7932 167.6ZM-6.39318 190.1C-6.39318 191.3 -6.39318 192.2 -6.39318 193.3C-4.89318 192.4 -4.89318 191.3 -6.39318 190.1Z" fill="white" fill-opacity="0.3"/>
<path d="M157.377 0C157.377 8.4 157.377 16.9 157.277 25.3C157.277 26.4 157.477 27.1 158.777 27.3C159.677 27.4 160.477 27.9 161.277 28.4C162.977 29.4 164.777 30.4 166.177 31.3C164.477 32.5 162.677 34.5 160.477 35.3C157.577 36.4 156.877 38 157.277 40.8C157.477 42.5 157.377 44.2 157.277 45.9C157.277 46.9 157.677 47.2 158.577 47.5C159.877 47.9 161.177 48.6 162.477 49.3C163.777 50 165.077 50.9 165.977 51.5C164.877 52.4 163.577 53.6 162.177 54.8C161.577 55.3 160.977 55.8 160.277 55.9C157.577 56.3 157.277 58 157.277 60.4C157.177 63.8 157.877 67.1 158.777 70.3C159.177 71.6 159.277 73 159.577 74.3C159.677 74.9 159.977 75.5 160.277 76C161.177 77.6 162.377 79.1 163.177 80.8C163.777 82 164.477 82.7 165.677 83.1C168.977 84.2 169.377 84.8 168.777 88.2C168.377 90.6 167.777 92.9 167.177 95.2C166.877 96.3 167.077 96.9 168.177 97.5C174.677 100.8 180.477 105 184.377 111.4C189.277 119.5 188.677 131.2 183.077 138.9C179.877 143.2 175.977 146.4 171.177 148.5C169.777 149.1 169.477 150 169.977 151.2C170.577 152.6 171.077 154.1 172.077 155.2C175.977 159.6 174.377 165.7 169.877 167.5C169.477 167.7 169.077 168 168.677 168.1C166.177 168.9 164.677 170.4 164.177 173.1C163.777 175.1 162.077 176.3 160.177 177C158.977 177.4 158.777 177.9 159.377 179.1C160.977 182.1 160.777 185.2 159.277 188.1C158.377 189.8 157.177 191.4 156.077 193.1C151.977 188.7 149.577 183.6 152.377 178.8C152.977 177.8 152.577 177.3 151.577 177C149.177 176.2 147.577 174.6 147.177 172C146.877 170.5 146.077 169.6 144.777 169C143.377 168.4 141.977 167.9 140.777 167C136.877 164.4 136.377 159.2 139.377 155.3C140.477 154 141.177 152.3 141.777 150.7C142.177 149.7 141.777 149 140.577 148.5C128.677 143.5 123.277 133.3 124.077 120.9C124.477 115 127.377 110.2 131.477 106.1C135.077 102.5 139.077 99.4 143.777 97.3C144.677 96.9 144.777 96.2 144.577 95.3C143.977 92.8 143.377 90.2 142.977 87.6C142.477 85 142.977 83.9 145.477 83.2C147.477 82.6 148.577 81.5 148.977 79.5C149.077 79.1 149.177 78.7 149.477 78.4C152.177 76 152.177 72.4 153.177 69.3C154.377 65.7 154.377 62.2 154.277 58.5C154.277 57.4 153.977 56.7 152.777 56.4C150.377 55.8 148.277 54.5 146.777 52.4C146.377 51.9 145.477 51.8 144.477 51.4C147.477 49.9 150.377 48.6 153.177 47.2C153.677 47 154.177 46.4 154.277 46C154.377 43.2 154.377 40.4 154.177 37.6C154.177 37.1 153.477 36.5 152.977 36.3C150.577 35.4 148.177 34.6 146.777 32.1C146.477 31.6 145.377 31.5 144.477 31.2C147.677 29.7 150.677 28.4 153.677 27C154.077 26.8 154.377 26 154.377 25.5C154.377 18.6 154.377 11.7 154.377 4.8C154.377 3.2 154.377 1.6 154.377 0C155.277 0 156.377 0 157.377 0ZM164.677 120.7C164.477 120.7 164.277 120.6 164.077 120.6C164.177 119.5 164.277 118.4 164.377 117.5C163.377 116.9 162.377 116.3 161.077 115.5C161.977 114.9 162.477 114.6 163.077 114.2C161.877 112.9 160.577 112 158.777 111.9C158.877 112.6 158.877 113.2 158.977 114.2C157.577 113.5 156.577 112.9 155.577 112.4C154.677 112.9 153.677 113.5 152.377 114.2C152.377 113.1 152.377 112.6 152.377 111.6C150.777 112.5 149.477 113.2 147.877 114.1C148.877 114.7 149.377 115 150.477 115.6C148.977 116.4 147.877 116.9 146.777 117.4C146.977 118.4 147.177 119.5 147.477 120.6C147.277 120.7 147.177 120.7 146.977 120.8C146.377 120.4 145.777 119.9 144.777 119.2C144.377 121.1 144.177 122.7 145.077 124.5C145.777 124 146.477 123.6 147.077 123.2C148.677 124.8 146.977 126.2 146.877 127.6C149.977 128 149.977 128 150.277 129C149.577 129.2 148.977 129.5 148.277 129.7C149.077 131.7 150.677 132.6 152.277 132.2C152.177 131.5 152.177 130.7 152.077 129.9C152.177 129.8 152.377 129.6 152.477 129.5C153.677 130.3 154.877 131.1 155.977 131.9C156.877 131.2 157.677 130.5 158.877 129.5C158.977 130.7 158.977 131.4 159.077 132.7C160.677 131.6 161.877 130.8 163.377 129.8C162.177 129.3 161.677 129 160.677 128.6C161.477 128.1 161.977 127.7 162.577 127.6C163.077 127.5 163.777 127.7 164.477 127.7C164.377 126.1 163.077 124.7 164.577 123.4C165.177 123.7 165.677 124 166.477 124.4C166.477 122.6 166.477 121 166.477 119.1C165.677 120 165.177 120.3 164.677 120.7ZM170.677 125.9C170.677 126 170.677 126 170.777 126.1C170.977 126.6 171.077 127.3 171.477 127.7C171.777 128 172.577 128.1 172.877 127.9C174.277 126.9 175.777 128 177.177 127.6C177.677 127.4 178.477 127.8 178.877 127.5C179.277 127.2 179.277 126.4 179.377 125.9C179.477 125.9 179.477 125.9 179.577 126C179.977 125.1 180.377 124.1 180.777 123.1C181.977 123.7 182.177 122.8 181.977 121.8C181.877 121.3 181.277 120.9 180.877 120.4C180.777 120.5 180.577 120.6 180.477 120.7C180.477 120.2 180.477 119.7 180.477 119.2C179.077 118.9 178.477 118.2 179.477 116.9C178.377 116 177.477 115.2 176.877 116.5C175.777 116.6 174.977 116.7 174.177 116.8C173.877 116.8 173.577 116.7 173.277 116.6C172.877 116.5 172.277 116.1 172.077 116.3C171.677 116.6 171.477 117.1 171.277 117.6C170.577 118.7 170.077 120 169.177 120.9C168.277 121.8 168.077 122.6 169.077 123.4C169.477 123.7 169.677 124.1 169.877 124.5C170.177 124.8 170.377 125.4 170.677 125.9ZM141.077 126.2C142.277 125.3 141.677 123.1 143.377 122.5C143.477 122.5 143.477 121.3 143.277 121.3C142.077 121 141.877 119.9 141.177 119.1C140.777 118.5 140.377 117.9 140.077 117.3C140.177 117.2 140.377 117.1 140.477 117C139.777 116.4 139.277 116.1 138.177 116.7C137.277 117.2 135.777 116.8 134.577 116.5C133.677 116.2 132.577 116.6 132.477 117.6C132.477 118 132.477 118.5 132.277 118.8C131.877 119.5 131.277 120.1 130.877 120.7C130.377 121.2 129.777 121.6 129.677 122.1C129.477 122.8 129.477 123.6 130.777 123.5C130.977 123.5 131.177 123.9 131.277 124.2C131.677 124.9 131.977 125.6 132.277 126.3C132.477 126.9 132.577 127.8 132.977 128C133.577 128.3 134.377 128 135.077 127.9V127.8C136.077 127.8 137.077 127.8 137.777 127.8C138.677 127.9 139.477 128.3 139.977 128.1C140.477 127.7 140.677 126.8 141.077 126.2ZM155.477 75.3C154.777 76.2 154.277 77.1 155.177 78C155.377 78.2 156.077 78 156.277 77.8C156.977 76.7 156.577 75.9 155.477 75.3ZM155.877 187.2C156.677 186.4 157.277 185.6 156.477 184.6C156.277 184.4 155.577 184.3 155.377 184.5C154.477 185.4 154.977 186.3 155.877 187.2ZM158.377 185.3C159.277 184.3 159.177 183.4 158.377 182.7C158.077 182.4 157.477 182.5 156.977 182.4C157.077 182.8 157.177 183.2 157.377 183.6C157.677 184 157.977 184.5 158.377 185.3ZM152.677 184.7C152.877 184.7 153.077 184.8 153.277 184.8C153.577 184.4 153.877 184 154.077 183.6C154.277 183.2 154.377 182.6 154.477 182.2C153.877 182.5 153.177 182.6 152.877 183.1C152.577 183.4 152.777 184.1 152.677 184.7ZM158.677 77.4C158.477 77.4 158.277 77.4 158.077 77.4C157.577 78.2 157.077 79 156.677 79.9C156.777 80.1 156.877 80.2 156.977 80.4C157.577 80.1 158.377 79.9 158.677 79.4C158.877 78.8 158.677 78 158.677 77.4ZM152.977 151.8C152.977 151.9 152.977 152.1 152.977 152.2C153.577 152.4 154.277 152.7 155.077 153C155.077 152.2 155.077 151.6 155.077 150.8C154.277 151.2 153.677 151.5 152.977 151.8ZM152.977 77.3C152.277 79.4 152.677 80 154.577 79.9C153.977 79 153.577 78.3 152.977 77.3ZM165.377 150.9C165.477 151.9 165.477 152.4 165.577 153.2C166.477 152.8 167.177 152.5 167.877 152.2C167.877 152 167.877 151.9 167.877 151.7C167.177 151.5 166.477 151.2 165.377 150.9ZM149.477 148.6C149.577 148.4 149.577 148.2 149.677 148C148.977 147.8 148.277 147.6 147.677 147.5C147.577 148 147.477 148.5 147.377 149.4C148.377 149 148.877 148.8 149.477 148.6ZM162.077 147.6C162.077 147.9 162.077 148.2 161.977 148.6C162.677 148.7 163.377 148.7 164.077 148.8C164.077 148.4 164.077 148 164.077 147.7C163.477 147.6 162.777 147.6 162.077 147.6ZM149.577 152.5C149.577 152.2 149.577 151.9 149.577 151.7C148.877 151.6 148.277 151.5 147.577 151.5C147.577 151.9 147.577 152.3 147.577 152.7C148.277 152.6 148.977 152.5 149.577 152.5ZM164.177 150.9C163.377 151.3 162.777 151.5 162.177 151.8C162.177 152 162.177 152.1 162.177 152.3C162.777 152.5 163.377 152.8 164.177 153.1C164.177 152.2 164.177 151.7 164.177 150.9ZM158.777 148.6C158.777 148.3 158.777 148 158.777 147.8C158.077 147.8 157.377 147.7 156.677 147.7C156.677 148.1 156.677 148.4 156.677 148.8C157.377 148.7 158.077 148.6 158.777 148.6ZM152.977 147.8C152.977 148.1 152.977 148.3 152.977 148.6C153.677 148.7 154.277 148.8 154.977 148.9C154.977 148.5 154.977 148.2 154.977 147.8C154.377 147.7 153.677 147.7 152.977 147.8ZM167.577 148.5C167.577 148.3 167.577 148.1 167.577 147.9C166.977 147.7 166.377 147.5 165.677 147.2C165.677 147.9 165.677 148.4 165.677 149.1C166.477 148.9 166.977 148.7 167.577 148.5ZM158.677 152.5C158.677 152.2 158.677 151.9 158.677 151.6C157.977 151.5 157.377 151.5 156.677 151.4C156.677 151.8 156.677 152.5 156.677 152.5C157.377 152.5 157.977 152.5 158.677 152.5ZM143.977 147.9C143.977 148.1 143.977 148.3 143.977 148.5C144.577 148.7 145.277 148.9 146.077 149.2C145.977 148.4 145.977 147.9 145.877 147.1C145.177 147.4 144.577 147.7 143.977 147.9ZM146.077 150.7C145.177 151.2 144.677 151.5 143.677 152.1C144.777 152.5 145.377 152.6 146.077 152.9C146.077 152.2 146.077 151.7 146.077 150.7Z" fill="white" fill-opacity="0.3"/>
<path d="M155.877 126.9C153.277 126.9 151.177 124.9 151.177 122.3C151.177 119.5 153.177 117.5 156.077 117.5C158.477 117.5 160.577 119.6 160.577 122.1C160.577 124.8 158.577 126.9 155.877 126.9Z" fill="white" fill-opacity="0.3"/>
<path d="M175.477 124.4C173.977 124.4 172.777 123.3 172.777 121.9C172.777 120.6 173.877 119.5 175.277 119.5C176.677 119.5 177.577 120.5 177.577 122.1C177.577 123.4 176.677 124.4 175.477 124.4Z" fill="white" fill-opacity="0.3"/>
<path d="M136.677 119.4C138.077 119.4 138.977 120.5 138.977 122.1C138.977 123.3 137.877 124.3 136.477 124.4C135.177 124.4 134.177 123.3 134.177 122C134.177 120.6 135.277 119.4 136.677 119.4Z" fill="white" fill-opacity="0.3"/>
</svg>
